<svg width="31" height="30" viewBox="0 0 31 30" fill="none" xmlns="http://www.w3.org/2000/svg">
<rect x="0.75" y="0.5" width="29" height="29" rx="14.5" fill="#EE575C"/>
<rect x="0.75" y="0.5" width="29" height="29" rx="14.5" stroke="white"/>
<path d="M11.3209 22.5H19.1809C21.2509 22.5 22.0759 21.2325 22.1734 19.6875L22.5634 13.4925C22.6684 11.8725 21.3784 10.5 19.7509 10.5C19.2934 10.5 18.8734 10.2375 18.6634 9.8325L18.1234 8.745C17.7784 8.0625 16.8784 7.5 16.1134 7.5H14.3959C13.6234 7.5 12.7234 8.0625 12.3784 8.745L11.8384 9.8325C11.6284 10.2375 11.2084 10.5 10.7509 10.5C9.12336 10.5 7.83336 11.8725 7.93836 13.4925L8.32836 19.6875C8.41836 21.2325 9.25086 22.5 11.3209 22.5Z" stroke="white" stroke-linecap="round" stroke-linejoin="round"/>
<path d="M14.125 12H16.375" stroke="white" stroke-linecap="round" stroke-linejoin="round"/>
<path d="M15.2493 19.5C16.5918 19.5 17.6868 18.405 17.6868 17.0625C17.6868 15.72 16.5918 14.625 15.2493 14.625C13.9068 14.625 12.8118 15.72 12.8118 17.0625C12.8118 18.405 13.9068 19.5 15.2493 19.5Z" stroke="white" stroke-linecap="round" stroke-linejoin="round"/>
</svg>
