<svg width="20" height="20" viewBox="0 0 20 20" fill="none" xmlns="http://www.w3.org/2000/svg">
<path d="M2.5 2.7085C2.15482 2.7085 1.875 2.98832 1.875 3.3335C1.875 3.67867 2.15482 3.9585 2.5 3.9585C3.18088 3.9585 3.7704 4.43139 3.9181 5.09606L4.27637 6.70829C4.27898 6.74744 4.28529 6.7866 4.29541 6.82523L4.3412 6.99999L4.38988 7.21908C4.39946 7.26216 4.41327 7.30321 4.43077 7.34188L5.82675 12.6701C6.28289 14.411 7.8561 15.6252 9.65585 15.6252H13.3333C13.6785 15.6252 13.9583 15.3453 13.9583 15.0002C13.9583 14.655 13.6785 14.3752 13.3333 14.3752H9.65585C8.42444 14.3752 7.34803 13.5444 7.03594 12.3532L5.70985 7.29183H14.1928C15.3038 7.29183 16.3021 7.97035 16.711 9.00336C16.8381 9.32431 17.2012 9.4815 17.5222 9.35446C17.8431 9.22742 18.0003 8.86425 17.8733 8.5433C17.2757 7.03351 15.8166 6.04183 14.1928 6.04183H5.40877L5.13833 4.82489C4.86354 3.58831 3.76675 2.7085 2.5 2.7085Z" fill="white"/>
<path d="M8.33333 17.5002C8.33333 17.9604 7.96024 18.3335 7.5 18.3335C7.03976 18.3335 6.66667 17.9604 6.66667 17.5002C6.66667 17.0399 7.03976 16.6668 7.5 16.6668C7.96024 16.6668 8.33333 17.0399 8.33333 17.5002Z" fill="white"/>
<path d="M15 17.5002C15 17.9604 14.6269 18.3335 14.1667 18.3335C13.7064 18.3335 13.3333 17.9604 13.3333 17.5002C13.3333 17.0399 13.7064 16.6668 14.1667 16.6668C14.6269 16.6668 15 17.0399 15 17.5002Z" fill="white"/>
<path d="M15.8333 10.2085C16.1785 10.2085 16.4583 10.4883 16.4583 10.8335V11.8752H17.5C17.8452 11.8752 18.125 12.155 18.125 12.5002C18.125 12.8453 17.8452 13.1252 17.5 13.1252H16.4583V14.1668C16.4583 14.512 16.1785 14.7918 15.8333 14.7918C15.4882 14.7918 15.2083 14.512 15.2083 14.1668V13.1252H14.1667C13.8215 13.1252 13.5417 12.8453 13.5417 12.5002C13.5417 12.155 13.8215 11.8752 14.1667 11.8752H15.2083V10.8335C15.2083 10.4883 15.4882 10.2085 15.8333 10.2085Z" fill="white"/>
</svg>
