<svg width="12" height="12" viewBox="0 0 12 12" fill="none" xmlns="http://www.w3.org/2000/svg">
<path d="M4.796 6.968H1.004C0.62 6.968 0.428 6.776 0.428 6.392V5.66C0.428 5.276 0.62 5.084 1.004 5.084H4.796V1.16C4.796 0.776 4.988 0.584 5.372 0.584H6.404C6.788 0.584 6.98 0.776 6.98 1.16V5.084H10.772C11.156 5.084 11.348 5.276 11.348 5.66V6.392C11.348 6.776 11.156 6.968 10.772 6.968H6.98V10.904C6.98 11.288 6.788 11.48 6.404 11.48H5.372C4.988 11.48 4.796 11.288 4.796 10.904V6.968Z" fill="white"/>
</svg>
