<svg width="20" height="20" viewBox="0 0 20 20" fill="none" xmlns="http://www.w3.org/2000/svg">
<path fill-rule="evenodd" clip-rule="evenodd" d="M4.51308 2.80805C2.85744 3.44461 1.53876 5.02144 1.53876 7.11066C1.53876 8.7633 2.28373 10.3476 3.47676 11.8771C4.67001 13.4068 6.26224 14.8192 7.85266 16.1208C8.50027 16.6507 8.93283 17.003 9.29315 17.2308C9.6359 17.4475 9.83391 17.4985 10.0019 17.4985C10.17 17.4985 10.368 17.4475 10.7107 17.2308C11.0711 17.003 11.5036 16.6507 12.1512 16.1208C13.7417 14.8192 15.3339 13.4068 16.5271 11.8771C17.7202 10.3476 18.4651 8.7633 18.4651 7.11066C18.4651 5.02144 17.1465 3.44461 15.4908 2.80805C13.8502 2.17728 11.9201 2.48055 10.6131 4.15201C10.4675 4.33817 10.2416 4.44737 10.0019 4.44737C9.76232 4.44737 9.53637 4.33817 9.3908 4.15201C8.08381 2.48055 6.15366 2.17728 4.51308 2.80805ZM10.0019 2.56124C8.26147 0.898061 5.91543 0.651803 3.95011 1.40743C1.75885 2.24992 0 4.34883 0 7.11066C0 9.21935 0.951017 11.1203 2.25337 12.7899C3.5555 14.4592 5.25804 15.9597 6.8652 17.275L6.90162 17.3048C7.50318 17.7971 8.00826 18.2105 8.45781 18.4947C8.93396 18.7957 9.42484 19.0035 10.0019 19.0035C10.5791 19.0035 11.0699 18.7957 11.5461 18.4947C11.9956 18.2105 12.5007 17.7971 13.1023 17.3048L13.1387 17.275C14.7459 15.9597 16.4484 14.4592 17.7505 12.7899C19.0529 11.1203 20.0039 9.21935 20.0039 7.11066C20.0039 4.34883 18.245 2.24992 16.0538 1.40743C14.0885 0.651803 11.7424 0.898061 10.0019 2.56124Z" fill="#EE575C"/>
</svg>
