<svg width="20" height="20" viewBox="0 0 20 20" fill="none" xmlns="http://www.w3.org/2000/svg">
<path d="M10.625 12.2177C10.7547 12.0708 10.8333 11.8778 10.8333 11.6665C10.8333 11.2063 10.4602 10.8332 10 10.8332C9.53976 10.8332 9.16667 11.2063 9.16667 11.6665C9.16667 11.8778 9.24534 12.0708 9.375 12.2177V14.9998C9.375 15.345 9.65482 15.6248 10 15.6248C10.3452 15.6248 10.625 15.345 10.625 14.9998V12.2177Z" fill="#868686"/>
<path fill-rule="evenodd" clip-rule="evenodd" d="M6.04167 6.6665V4.99984C6.04167 2.81371 7.81387 1.0415 10 1.0415C12.1861 1.0415 13.9583 2.81371 13.9583 4.99984V6.6665H14.1667C16.0076 6.6665 17.5 8.15889 17.5 9.99984V14.9998C17.5 16.8408 16.0076 18.3332 14.1667 18.3332H5.83333C3.99238 18.3332 2.5 16.8408 2.5 14.9998V9.99984C2.5 8.15889 3.99238 6.6665 5.83333 6.6665H6.04167ZM7.29167 4.99984C7.29167 3.50407 8.50423 2.2915 10 2.2915C11.4958 2.2915 12.7083 3.50407 12.7083 4.99984V6.6665H7.29167V4.99984ZM3.75 9.99984C3.75 8.84924 4.68274 7.9165 5.83333 7.9165H14.1667C15.3173 7.9165 16.25 8.84924 16.25 9.99984V14.9998C16.25 16.1504 15.3173 17.0832 14.1667 17.0832H5.83333C4.68274 17.0832 3.75 16.1504 3.75 14.9998V9.99984Z" fill="#868686"/>
</svg>
