<svg width="20" height="20" viewBox="0 0 20 20" fill="none" xmlns="http://www.w3.org/2000/svg">
<path d="M5.49996 5.4585C5.29285 5.18235 4.9011 5.12639 4.62496 5.3335C4.34882 5.5406 4.29285 5.93235 4.49996 6.2085L6.83329 9.31961C8.41663 11.4307 11.5833 11.4307 13.1666 9.31961L15.5 6.2085C15.7071 5.93235 15.6511 5.5406 15.375 5.3335C15.0988 5.12639 14.7071 5.18235 14.5 5.4585L12.1666 8.56961C11.0833 10.0141 8.91663 10.0141 7.83329 8.56961L5.49996 5.4585Z" fill="#868686"/>
<path fill-rule="evenodd" clip-rule="evenodd" d="M15 3.3335H4.99996C3.15901 3.3335 1.66663 4.82588 1.66663 6.66683V13.3335C1.66663 15.1744 3.15901 16.6668 4.99996 16.6668H15C16.8409 16.6668 18.3333 15.1744 18.3333 13.3335V6.66683C18.3333 4.82588 16.8409 3.3335 15 3.3335ZM4.99996 4.5835H15C16.1506 4.5835 17.0833 5.51624 17.0833 6.66683V13.3335C17.0833 14.4841 16.1506 15.4168 15 15.4168H4.99996C3.84937 15.4168 2.91663 14.4841 2.91663 13.3335V6.66683C2.91663 5.51624 3.84937 4.5835 4.99996 4.5835Z" fill="#868686"/>
</svg>
