<svg width="20" height="20" viewBox="0 0 20 20" fill="none" xmlns="http://www.w3.org/2000/svg">
<path fill-rule="evenodd" clip-rule="evenodd" d="M2.54798 5.16746L3.26418 3.73506C3.77293 2.71757 5.129 2.4975 5.9334 3.30191L7.83485 5.20335C8.34211 5.71062 8.46787 6.48557 8.14705 7.12722L7.9281 7.56511C7.57585 8.26961 7.56999 9.10325 7.98045 9.77552C8.30178 10.3018 8.71316 10.9062 9.12287 11.3159C9.47597 11.669 9.9737 12.0234 10.4414 12.3203C11.2252 12.8178 12.2251 12.724 12.9729 12.1738C13.6397 11.6832 14.5671 11.7638 15.1393 12.3621L16.7722 14.0694C17.5477 14.8803 17.3166 16.2103 16.313 16.7121L14.8327 17.4522C13.6823 18.0274 12.3789 18.2718 11.1629 17.8526C9.70231 17.3491 7.60907 16.3425 5.63339 14.3668C3.65771 12.3911 2.65106 10.2979 2.14758 8.83729C1.72842 7.62131 1.97278 6.31786 2.54798 5.16746ZM3.66602 5.72647L4.38221 4.29408C4.5094 4.0397 4.84842 3.98469 5.04952 4.18579L6.95096 6.08724C7.07778 6.21405 7.10922 6.40779 7.02901 6.5682L6.81007 7.00609C6.2887 8.04883 6.2525 9.34414 6.91358 10.4269C7.24584 10.9711 7.71993 11.6808 8.23898 12.1998C8.69038 12.6512 9.28053 13.064 9.77152 13.3756C11.0464 14.1848 12.6066 13.9952 13.7137 13.1806C13.8744 13.0624 14.098 13.0818 14.2359 13.226L15.8688 14.9334C16.0627 15.1361 16.0049 15.4686 15.754 15.594L14.2737 16.3342C13.3142 16.8139 12.369 16.9462 11.5703 16.6709C10.2444 16.2138 8.32898 15.2946 6.51728 13.4829C4.70557 11.6712 3.78637 9.75577 3.32934 8.42993C3.05401 7.6312 3.18626 6.68599 3.66602 5.72647Z" fill="#868686"/>
</svg>
