<svg width="16" height="16" viewBox="0 0 16 16" fill="none" xmlns="http://www.w3.org/2000/svg">
<path fill-rule="evenodd" clip-rule="evenodd" d="M2 2.16602C1.72386 2.16602 1.5 2.38987 1.5 2.66602C1.5 2.94216 1.72386 3.16602 2 3.16602C2.5447 3.16602 3.01632 3.54433 3.13448 4.07606L3.4211 5.36585C3.42318 5.39717 3.42823 5.4285 3.43633 5.4594L3.47296 5.59921L3.51191 5.77448C3.51957 5.80895 3.53061 5.84179 3.54462 5.87273L4.6614 10.1353C5.02631 11.528 6.28488 12.4993 7.72468 12.4993H11.1671C12.916 12.4993 14.3337 11.0816 14.3337 9.33268V7.52647C14.3337 7.15055 14.2795 6.69699 14.0244 6.29683C13.4505 5.39642 12.4493 4.83268 11.3542 4.83268H4.32701L4.11067 3.85913C3.89083 2.86987 3.0134 2.16602 2 2.16602ZM5.62875 9.88181L4.56788 5.83268H11.3542C12.1033 5.83268 12.7885 6.21824 13.1812 6.83432C13.2873 7.00087 13.3337 7.23033 13.3337 7.52647V9.33268C13.3337 10.5293 12.3637 11.4993 11.1671 11.4993H7.72468C6.73955 11.4993 5.87843 10.8348 5.62875 9.88181Z" fill="#686868"/>
<path d="M11.3333 14.666C11.7015 14.666 12 14.3675 12 13.9993C12 13.6312 11.7015 13.3327 11.3333 13.3327C10.9651 13.3327 10.6667 13.6312 10.6667 13.9993C10.6667 14.3675 10.9651 14.666 11.3333 14.666Z" fill="#686868"/>
<path d="M6.66667 13.9993C6.66667 14.3675 6.36819 14.666 6 14.666C5.63181 14.666 5.33333 14.3675 5.33333 13.9993C5.33333 13.6312 5.63181 13.3327 6 13.3327C6.36819 13.3327 6.66667 13.6312 6.66667 13.9993Z" fill="#686868"/>
</svg>
