<svg width="16" height="16" viewBox="0 0 16 16" fill="none" xmlns="http://www.w3.org/2000/svg">
<path fill-rule="evenodd" clip-rule="evenodd" d="M10.5635 11.5775C9.66705 12.2609 8.54758 12.6667 7.33333 12.6667C4.38781 12.6667 2 10.2789 2 7.33333C2 4.38781 4.38781 2 7.33333 2C10.2789 2 12.6667 4.38781 12.6667 7.33333C12.6667 8.71418 12.1419 9.97247 11.2809 10.9196C11.2986 10.9317 11.3157 10.945 11.3322 10.9596L14.3322 13.6263C14.5386 13.8098 14.5572 14.1258 14.3737 14.3322C14.1902 14.5386 13.8742 14.5572 13.6678 14.3737L10.6678 11.707C10.6249 11.6689 10.5901 11.625 10.5635 11.5775ZM11.6667 7.33333C11.6667 9.72657 9.72657 11.6667 7.33333 11.6667C4.9401 11.6667 3 9.72657 3 7.33333C3 4.9401 4.9401 3 7.33333 3C9.72657 3 11.6667 4.9401 11.6667 7.33333Z" fill="#686868"/>
</svg>
