<svg width="100" height="101" viewBox="0 0 100 101" fill="none" xmlns="http://www.w3.org/2000/svg">
<path fill-rule="evenodd" clip-rule="evenodd" d="M70.8334 29.6668C70.8334 41.1728 61.506 50.5002 50 50.5002C38.4941 50.5002 29.1667 41.1728 29.1667 29.6668C29.1667 18.1609 38.4941 8.8335 50 8.8335C61.506 8.8335 70.8334 18.1609 70.8334 29.6668ZM64.5834 29.6668C64.5834 37.721 58.0542 44.2502 50 44.2502C41.9459 44.2502 35.4167 37.721 35.4167 29.6668C35.4167 21.6127 41.9459 15.0835 50 15.0835C58.0542 15.0835 64.5834 21.6127 64.5834 29.6668Z" fill="#686868"/>
<path fill-rule="evenodd" clip-rule="evenodd" d="M83.3334 73.4168C83.3334 83.7722 68.4095 92.1668 50 92.1668C31.5905 92.1668 16.6667 83.7722 16.6667 73.4168C16.6667 63.0615 31.5905 54.6668 50 54.6668C68.4095 54.6668 83.3334 63.0615 83.3334 73.4168ZM77.0834 73.4168C77.0834 75.3337 75.6362 78.3421 70.5061 81.2277C65.572 84.0032 58.3347 85.9168 50 85.9168C41.6654 85.9168 34.4281 84.0032 29.4939 81.2277C24.3639 78.3421 22.9167 75.3337 22.9167 73.4168C22.9167 71.5 24.3639 68.4916 29.4939 65.6059C34.4281 62.8305 41.6654 60.9168 50 60.9168C58.3347 60.9168 65.572 62.8305 70.5061 65.6059C75.6362 68.4916 77.0834 71.5 77.0834 73.4168Z" fill="#686868"/>
</svg>
